<mxfile host="app.diagrams.net" modified="2023-11-07T13:14:37.850Z" agent="Mozilla/5.0 (Windows NT 10.0; Win64; x64) AppleWebKit/537.36 (KHTML, like Gecko) Chrome/118.0.0.0 Safari/537.36" etag="S0Jy47n_qPyixAu67rB3" version="22.0.8" type="device">
  <diagram name="Sida-1" id="D_eVixEPN7Rn9E4qybUl">
    <mxGraphModel dx="2314" dy="1142" grid="1" gridSize="10" guides="1" tooltips="1" connect="1" arrows="1" fold="1" page="1" pageScale="1" pageWidth="827" pageHeight="1169" math="0" shadow="0">
      <root>
        <mxCell id="0" />
        <mxCell id="1" parent="0" />
        <mxCell id="XnY3G6ZT9A_X3pFF4wV9-6" value="login" style="ellipse;whiteSpace=wrap;html=1;" parent="1" vertex="1">
          <mxGeometry x="180" y="90" width="70" height="40" as="geometry" />
        </mxCell>
        <mxCell id="XnY3G6ZT9A_X3pFF4wV9-8" value="register" style="ellipse;whiteSpace=wrap;html=1;" parent="1" vertex="1">
          <mxGeometry x="45" y="140" width="80" height="50" as="geometry" />
        </mxCell>
        <mxCell id="XnY3G6ZT9A_X3pFF4wV9-11" value="" style="endArrow=none;html=1;rounded=0;exitX=1;exitY=0.5;exitDx=0;exitDy=0;" parent="1" source="XnY3G6ZT9A_X3pFF4wV9-8" edge="1">
          <mxGeometry width="50" height="50" relative="1" as="geometry">
            <mxPoint x="130" y="250" as="sourcePoint" />
            <mxPoint x="180" y="200" as="targetPoint" />
          </mxGeometry>
        </mxCell>
        <mxCell id="XnY3G6ZT9A_X3pFF4wV9-13" value="Show position" style="ellipse;whiteSpace=wrap;html=1;" parent="1" vertex="1">
          <mxGeometry x="47.5" y="400" width="90" height="40" as="geometry" />
        </mxCell>
        <mxCell id="XnY3G6ZT9A_X3pFF4wV9-14" value="rent bike" style="ellipse;whiteSpace=wrap;html=1;" parent="1" vertex="1">
          <mxGeometry x="640" y="380" width="80" height="50" as="geometry" />
        </mxCell>
        <mxCell id="XnY3G6ZT9A_X3pFF4wV9-15" value="return bike" style="ellipse;whiteSpace=wrap;html=1;" parent="1" vertex="1">
          <mxGeometry x="640" y="450" width="80" height="50" as="geometry" />
        </mxCell>
        <mxCell id="XnY3G6ZT9A_X3pFF4wV9-16" value="show parkings&lt;br&gt;on map" style="ellipse;whiteSpace=wrap;html=1;" parent="1" vertex="1">
          <mxGeometry x="525" y="330" width="80" height="50" as="geometry" />
        </mxCell>
        <mxCell id="XnY3G6ZT9A_X3pFF4wV9-17" value="show available bikes&lt;br&gt;on map" style="ellipse;whiteSpace=wrap;html=1;" parent="1" vertex="1">
          <mxGeometry x="420" y="310" width="100" height="60" as="geometry" />
        </mxCell>
        <mxCell id="XnY3G6ZT9A_X3pFF4wV9-18" value="log user &amp;amp; travel data" style="ellipse;whiteSpace=wrap;html=1;" parent="1" vertex="1">
          <mxGeometry x="35" y="470" width="100" height="60" as="geometry" />
        </mxCell>
        <mxCell id="XnY3G6ZT9A_X3pFF4wV9-20" value="login" style="ellipse;whiteSpace=wrap;html=1;" parent="1" vertex="1">
          <mxGeometry x="650" y="70" width="80" height="40" as="geometry" />
        </mxCell>
        <mxCell id="XnY3G6ZT9A_X3pFF4wV9-22" value="manage customers" style="ellipse;whiteSpace=wrap;html=1;" parent="1" vertex="1">
          <mxGeometry x="650" y="150" width="110" height="60" as="geometry" />
        </mxCell>
        <mxCell id="XnY3G6ZT9A_X3pFF4wV9-23" value="" style="endArrow=none;html=1;rounded=0;entryX=0.038;entryY=0.85;entryDx=0;entryDy=0;entryPerimeter=0;" parent="1" target="XnY3G6ZT9A_X3pFF4wV9-20" edge="1">
          <mxGeometry width="50" height="50" relative="1" as="geometry">
            <mxPoint x="600" y="196" as="sourcePoint" />
            <mxPoint x="656" y="140" as="targetPoint" />
          </mxGeometry>
        </mxCell>
        <mxCell id="XnY3G6ZT9A_X3pFF4wV9-25" value="" style="endArrow=none;html=1;rounded=0;entryX=0;entryY=0.5;entryDx=0;entryDy=0;" parent="1" target="XnY3G6ZT9A_X3pFF4wV9-22" edge="1">
          <mxGeometry width="50" height="50" relative="1" as="geometry">
            <mxPoint x="600" y="200" as="sourcePoint" />
            <mxPoint x="650" y="240" as="targetPoint" />
          </mxGeometry>
        </mxCell>
        <mxCell id="XnY3G6ZT9A_X3pFF4wV9-26" value="" style="endArrow=none;html=1;rounded=0;entryX=0;entryY=0.5;entryDx=0;entryDy=0;" parent="1" target="XnY3G6ZT9A_X3pFF4wV9-15" edge="1" source="YxeP4oemp-PlepETcSzP-9">
          <mxGeometry width="50" height="50" relative="1" as="geometry">
            <mxPoint x="600" y="590" as="sourcePoint" />
            <mxPoint x="640" y="484" as="targetPoint" />
          </mxGeometry>
        </mxCell>
        <mxCell id="XnY3G6ZT9A_X3pFF4wV9-27" value="" style="endArrow=none;html=1;rounded=0;exitX=1;exitY=0.25;exitDx=0;exitDy=0;entryX=0;entryY=1;entryDx=0;entryDy=0;" parent="1" edge="1" target="XnY3G6ZT9A_X3pFF4wV9-14" source="YxeP4oemp-PlepETcSzP-9">
          <mxGeometry width="50" height="50" relative="1" as="geometry">
            <mxPoint x="610" y="508" as="sourcePoint" />
            <mxPoint x="650" y="440" as="targetPoint" />
          </mxGeometry>
        </mxCell>
        <mxCell id="XnY3G6ZT9A_X3pFF4wV9-30" value="" style="endArrow=none;html=1;rounded=0;exitX=1;exitY=0.5;exitDx=0;exitDy=0;entryX=0;entryY=0.75;entryDx=0;entryDy=0;" parent="1" source="XnY3G6ZT9A_X3pFF4wV9-18" edge="1" target="KxSjhVDLl_PmHvH7Wyjv-1">
          <mxGeometry width="50" height="50" relative="1" as="geometry">
            <mxPoint x="140" y="640" as="sourcePoint" />
            <mxPoint x="190" y="590" as="targetPoint" />
          </mxGeometry>
        </mxCell>
        <mxCell id="XnY3G6ZT9A_X3pFF4wV9-31" value="" style="endArrow=none;html=1;rounded=0;exitX=1;exitY=1;exitDx=0;exitDy=0;entryX=-0.011;entryY=0.61;entryDx=0;entryDy=0;entryPerimeter=0;" parent="1" source="XnY3G6ZT9A_X3pFF4wV9-13" edge="1" target="KxSjhVDLl_PmHvH7Wyjv-1">
          <mxGeometry width="50" height="50" relative="1" as="geometry">
            <mxPoint x="130" y="550" as="sourcePoint" />
            <mxPoint x="190" y="590" as="targetPoint" />
          </mxGeometry>
        </mxCell>
        <mxCell id="YxeP4oemp-PlepETcSzP-3" value="payment" style="ellipse;whiteSpace=wrap;html=1;" parent="1" vertex="1">
          <mxGeometry x="47.5" y="270" width="85" height="50" as="geometry" />
        </mxCell>
        <mxCell id="YxeP4oemp-PlepETcSzP-4" value="show history" style="ellipse;whiteSpace=wrap;html=1;" parent="1" vertex="1">
          <mxGeometry x="260" y="310" width="85" height="50" as="geometry" />
        </mxCell>
        <mxCell id="YxeP4oemp-PlepETcSzP-5" value="notify low&lt;br&gt;battery" style="ellipse;whiteSpace=wrap;html=1;" parent="1" vertex="1">
          <mxGeometry x="305" y="470" width="85" height="50" as="geometry" />
        </mxCell>
        <mxCell id="YxeP4oemp-PlepETcSzP-6" value="red light&lt;br&gt;when not available" style="ellipse;whiteSpace=wrap;html=1;" parent="1" vertex="1">
          <mxGeometry x="300" y="400" width="85" height="50" as="geometry" />
        </mxCell>
        <mxCell id="YxeP4oemp-PlepETcSzP-8" value="manage database" style="ellipse;whiteSpace=wrap;html=1;" parent="1" vertex="1">
          <mxGeometry x="640" y="245" width="110" height="60" as="geometry" />
        </mxCell>
        <mxCell id="YxeP4oemp-PlepETcSzP-9" value="" style="image;html=1;image=img/lib/clip_art/telecommunication/iPhone_128x128.png" parent="1" vertex="1">
          <mxGeometry x="525" y="420" width="80" height="80" as="geometry" />
        </mxCell>
        <mxCell id="YxeP4oemp-PlepETcSzP-10" value="app" style="text;strokeColor=none;align=center;fillColor=none;html=1;verticalAlign=middle;whiteSpace=wrap;rounded=0;" parent="1" vertex="1">
          <mxGeometry x="535" y="500" width="60" height="30" as="geometry" />
        </mxCell>
        <mxCell id="YxeP4oemp-PlepETcSzP-14" value="customer&lt;br&gt;web interface" style="text;html=1;align=center;verticalAlign=middle;resizable=0;points=[];autosize=1;strokeColor=none;fillColor=none;" parent="1" vertex="1">
          <mxGeometry x="175" y="240" width="90" height="40" as="geometry" />
        </mxCell>
        <mxCell id="YxeP4oemp-PlepETcSzP-15" value="" style="image;html=1;image=img/lib/clip_art/people/Suit_Woman_Green_128x128.png" parent="1" vertex="1">
          <mxGeometry x="175" y="160" width="80" height="80" as="geometry" />
        </mxCell>
        <mxCell id="YxeP4oemp-PlepETcSzP-16" value="" style="verticalLabelPosition=bottom;sketch=0;aspect=fixed;html=1;verticalAlign=top;strokeColor=none;align=center;outlineConnect=0;shape=mxgraph.citrix.license_server;" parent="1" vertex="1">
          <mxGeometry x="530" y="155" width="65" height="85" as="geometry" />
        </mxCell>
        <mxCell id="YxeP4oemp-PlepETcSzP-17" value="admin&lt;br&gt;interface" style="text;html=1;align=center;verticalAlign=middle;resizable=0;points=[];autosize=1;strokeColor=none;fillColor=none;" parent="1" vertex="1">
          <mxGeometry x="525" y="245" width="70" height="40" as="geometry" />
        </mxCell>
        <mxCell id="KxSjhVDLl_PmHvH7Wyjv-1" value="&lt;b style=&quot;font-weight:normal;&quot; id=&quot;docs-internal-guid-9e6da1bd-7fff-884f-2ec3-e17bcd4a4d77&quot;&gt;&lt;span style=&quot;font-size: 11pt; font-family: Arial, sans-serif; color: rgb(0, 0, 0); background-color: transparent; font-weight: 400; font-style: normal; font-variant: normal; text-decoration: none; vertical-align: baseline;&quot;&gt;&lt;span style=&quot;border:none;display:inline-block;overflow:hidden;width:82px;height:82px;&quot;&gt;&lt;img src=&quot;https://lh7-us.googleusercontent.com/K7d_zg_BDB-1NZBKFG_zPa2ZpOOGBhs8UOcB8ofUqHWBVdGit3B1TP0nQxVwa08pG1KcFYkpLLwxa8QDbMnKuEyMo4V_YEwA6_xggqONxXETpEkJQpp9q9ctr_8tNxkDua4F0fjZ40ps3OyDIK7DnBo&quot; width=&quot;82&quot; height=&quot;82&quot; style=&quot;margin-left:0px;margin-top:0px;&quot;&gt;&lt;/span&gt;&lt;/span&gt;&lt;/b&gt;" style="text;whiteSpace=wrap;html=1;" vertex="1" parent="1">
          <mxGeometry x="175" y="420" width="90" height="100" as="geometry" />
        </mxCell>
        <mxCell id="KxSjhVDLl_PmHvH7Wyjv-2" value="bike" style="text;html=1;align=center;verticalAlign=middle;resizable=0;points=[];autosize=1;strokeColor=none;fillColor=none;" vertex="1" parent="1">
          <mxGeometry x="190" y="500" width="50" height="30" as="geometry" />
        </mxCell>
        <mxCell id="KxSjhVDLl_PmHvH7Wyjv-3" value="Show cities" style="ellipse;whiteSpace=wrap;html=1;" vertex="1" parent="1">
          <mxGeometry x="480" y="70" width="80" height="40" as="geometry" />
        </mxCell>
        <mxCell id="KxSjhVDLl_PmHvH7Wyjv-4" value="move bike to&lt;br&gt;charge station" style="ellipse;whiteSpace=wrap;html=1;" vertex="1" parent="1">
          <mxGeometry x="390" y="140" width="90" height="50" as="geometry" />
        </mxCell>
        <mxCell id="KxSjhVDLl_PmHvH7Wyjv-6" value="" style="endArrow=none;html=1;rounded=0;entryX=0.429;entryY=1.025;entryDx=0;entryDy=0;entryPerimeter=0;exitX=0.5;exitY=0;exitDx=0;exitDy=0;" edge="1" parent="1" source="XnY3G6ZT9A_X3pFF4wV9-16">
          <mxGeometry width="50" height="50" relative="1" as="geometry">
            <mxPoint x="564.97" y="350" as="sourcePoint" />
            <mxPoint x="564.5000000000002" y="290" as="targetPoint" />
          </mxGeometry>
        </mxCell>
        <mxCell id="KxSjhVDLl_PmHvH7Wyjv-7" value="" style="endArrow=none;html=1;rounded=0;exitX=0.5;exitY=0;exitDx=0;exitDy=0;entryX=0.5;entryY=1;entryDx=0;entryDy=0;" edge="1" parent="1" source="YxeP4oemp-PlepETcSzP-9" target="XnY3G6ZT9A_X3pFF4wV9-16">
          <mxGeometry width="50" height="50" relative="1" as="geometry">
            <mxPoint x="560" y="460" as="sourcePoint" />
            <mxPoint x="560" y="400" as="targetPoint" />
          </mxGeometry>
        </mxCell>
        <mxCell id="KxSjhVDLl_PmHvH7Wyjv-8" value="" style="endArrow=none;html=1;rounded=0;entryX=-0.043;entryY=0.1;entryDx=0;entryDy=0;entryPerimeter=0;" edge="1" parent="1" target="YxeP4oemp-PlepETcSzP-17">
          <mxGeometry width="50" height="50" relative="1" as="geometry">
            <mxPoint x="475" y="310" as="sourcePoint" />
            <mxPoint x="525" y="260" as="targetPoint" />
          </mxGeometry>
        </mxCell>
        <mxCell id="KxSjhVDLl_PmHvH7Wyjv-9" value="" style="endArrow=none;html=1;rounded=0;exitX=0;exitY=0;exitDx=0;exitDy=0;" edge="1" parent="1" source="YxeP4oemp-PlepETcSzP-9">
          <mxGeometry width="50" height="50" relative="1" as="geometry">
            <mxPoint x="530" y="520" as="sourcePoint" />
            <mxPoint x="470" y="370" as="targetPoint" />
          </mxGeometry>
        </mxCell>
        <mxCell id="KxSjhVDLl_PmHvH7Wyjv-12" value="" style="endArrow=none;html=1;rounded=0;exitX=0;exitY=0.5;exitDx=0;exitDy=0;" edge="1" parent="1" source="YxeP4oemp-PlepETcSzP-9">
          <mxGeometry width="50" height="50" relative="1" as="geometry">
            <mxPoint x="504" y="540" as="sourcePoint" />
            <mxPoint x="324" y="360" as="targetPoint" />
          </mxGeometry>
        </mxCell>
        <mxCell id="KxSjhVDLl_PmHvH7Wyjv-13" value="" style="endArrow=none;html=1;rounded=0;" edge="1" parent="1" source="YxeP4oemp-PlepETcSzP-4">
          <mxGeometry width="50" height="50" relative="1" as="geometry">
            <mxPoint x="195" y="330" as="sourcePoint" />
            <mxPoint x="245" y="280" as="targetPoint" />
          </mxGeometry>
        </mxCell>
        <mxCell id="KxSjhVDLl_PmHvH7Wyjv-14" value="" style="endArrow=none;html=1;rounded=0;entryX=1.022;entryY=0.67;entryDx=0;entryDy=0;entryPerimeter=0;exitX=0;exitY=0.5;exitDx=0;exitDy=0;" edge="1" parent="1" source="YxeP4oemp-PlepETcSzP-5" target="KxSjhVDLl_PmHvH7Wyjv-1">
          <mxGeometry width="50" height="50" relative="1" as="geometry">
            <mxPoint x="220" y="690" as="sourcePoint" />
            <mxPoint x="270" y="640" as="targetPoint" />
          </mxGeometry>
        </mxCell>
        <mxCell id="KxSjhVDLl_PmHvH7Wyjv-15" value="" style="endArrow=none;html=1;rounded=0;entryX=0.035;entryY=0.78;entryDx=0;entryDy=0;exitX=1;exitY=0.5;exitDx=0;exitDy=0;entryPerimeter=0;" edge="1" parent="1" source="KxSjhVDLl_PmHvH7Wyjv-1" target="YxeP4oemp-PlepETcSzP-6">
          <mxGeometry width="50" height="50" relative="1" as="geometry">
            <mxPoint x="255" y="490" as="sourcePoint" />
            <mxPoint x="295" y="436" as="targetPoint" />
          </mxGeometry>
        </mxCell>
        <mxCell id="KxSjhVDLl_PmHvH7Wyjv-17" value="" style="endArrow=none;html=1;rounded=0;" edge="1" parent="1">
          <mxGeometry width="50" height="50" relative="1" as="geometry">
            <mxPoint x="600" y="240" as="sourcePoint" />
            <mxPoint x="640" y="270" as="targetPoint" />
          </mxGeometry>
        </mxCell>
        <mxCell id="KxSjhVDLl_PmHvH7Wyjv-18" value="" style="endArrow=none;html=1;rounded=0;" edge="1" parent="1">
          <mxGeometry width="50" height="50" relative="1" as="geometry">
            <mxPoint x="520" y="200" as="sourcePoint" />
            <mxPoint x="470" y="180" as="targetPoint" />
          </mxGeometry>
        </mxCell>
        <mxCell id="KxSjhVDLl_PmHvH7Wyjv-19" value="" style="endArrow=none;html=1;rounded=0;entryX=0.5;entryY=1;entryDx=0;entryDy=0;" edge="1" parent="1" source="YxeP4oemp-PlepETcSzP-16" target="KxSjhVDLl_PmHvH7Wyjv-3">
          <mxGeometry width="50" height="50" relative="1" as="geometry">
            <mxPoint x="500" y="160" as="sourcePoint" />
            <mxPoint x="520" y="120" as="targetPoint" />
          </mxGeometry>
        </mxCell>
        <mxCell id="KxSjhVDLl_PmHvH7Wyjv-20" value="" style="endArrow=none;html=1;rounded=0;" edge="1" parent="1">
          <mxGeometry width="50" height="50" relative="1" as="geometry">
            <mxPoint x="125" y="280" as="sourcePoint" />
            <mxPoint x="175" y="230" as="targetPoint" />
          </mxGeometry>
        </mxCell>
        <mxCell id="KxSjhVDLl_PmHvH7Wyjv-21" value="" style="endArrow=none;html=1;rounded=0;exitX=0.5;exitY=0;exitDx=0;exitDy=0;entryX=0.5;entryY=1;entryDx=0;entryDy=0;" edge="1" parent="1" source="YxeP4oemp-PlepETcSzP-15" target="XnY3G6ZT9A_X3pFF4wV9-6">
          <mxGeometry width="50" height="50" relative="1" as="geometry">
            <mxPoint x="170" y="150" as="sourcePoint" />
            <mxPoint x="220" y="100" as="targetPoint" />
          </mxGeometry>
        </mxCell>
        <mxCell id="KxSjhVDLl_PmHvH7Wyjv-26" style="edgeStyle=orthogonalEdgeStyle;rounded=0;orthogonalLoop=1;jettySize=auto;html=1;exitX=0.5;exitY=1;exitDx=0;exitDy=0;" edge="1" parent="1" source="YxeP4oemp-PlepETcSzP-10" target="YxeP4oemp-PlepETcSzP-10">
          <mxGeometry relative="1" as="geometry" />
        </mxCell>
      </root>
    </mxGraphModel>
  </diagram>
</mxfile>
